# xmcd
#
# Track frame offsets:
#	150
#	20384
#	35394
#	50273
#	65415
#	82028
#	96043
#	113160
#	132672
#	147139
#	168465
#	184017
#	199305
#	214692
#	228046
#	242513
#
# Disc length: 3423 seconds
#
# Revision: 1
# Processed by: cddbd v1.5.2PL0 Copyright (c) Steve Scherf et al.
# Submitted via: audiograbber 1.83.01
#
DISCID=d70d5d10
DTITLE=Stef Ekkel - Dit ben ik
DYEAR=2010
DGENRE=Hollands
TTITLE0=Stef Ekkel - De Woonboot
TTITLE1=Stef Ekkel - Hopeloos
TTITLE2=Stef Ekkel - Ik schrijf je naam
TTITLE3=Stef Ekkel - De Griekse melodie
TTITLE4=Stef Ekkel - Dat zomerse gevoel
TTITLE5=Stef Ekkel - Ik zeg d'r uit
TTITLE6=Stef Ekkel - Waarheen jij ook gaat
TTITLE7=Stef Ekkel - De tijd stond even stil
TTITLE8=Stef Ekkel - Ik ga nu leven
TTITLE9=Stef Ekkel and Roos - De Bouzouki klinkt door de Nacht
TTITLE10=Stef Ekkel - Heija heija
TTITLE11=Stef Ekkel - Dans de laatste dans
TTITLE12=Stef Ekkel - In ons klein cafe
TTITLE13=Stef Ekkel - Ik voel me helemaal te gek vandaag
TTITLE14=Stef Ekkel - Het Stadje Kufstein
TTITLE15=Stef Ekkel - Wat 'n dag
EXTD=
EXTT0=
EXTT1=
EXTT2=
EXTT3=
EXTT4=
EXTT5=
EXTT6=
EXTT7=
EXTT8=
EXTT9=
EXTT10=
EXTT11=
EXTT12=
EXTT13=
EXTT14=
EXTT15=
PLAYORDER=
